<?xml version="1.0" encoding="utf-8"?>
<!-- Generator: Adobe Illustrator 26.2.1, SVG Export Plug-In . SVG Version: 6.00 Build 0)  -->
<svg version="1.1" xmlns="http://www.w3.org/2000/svg" xmlns:xlink="http://www.w3.org/1999/xlink" x="0px" y="0px"
	 viewBox="0 0 700 750" style="enable-background:new 0 0 700 750;" xml:space="preserve">
<style type="text/css">
	.st0{fill:#FCFCF5;}
	.st1{opacity:0.502;fill:#8E8E8E;}
	.st2{fill:none;stroke:#000000;stroke-width:3;stroke-miterlimit:10;}
</style>
<g id="Layer_1">
	<polygon class="st0" points="49.42,198.02 49.42,548.02 352.53,723.02 655.64,548.02 655.64,198.02 352.53,23.02 	"/>
</g>
<g id="Layer_2">
	<polygon class="st1" points="653.01,285.93 650.98,285.96 648.96,286.01 646.94,286.05 644.91,286.11 642.89,286.17 640.86,286.23 
		638.84,286.3 636.82,286.39 634.79,286.48 632.77,286.58 630.74,286.68 628.72,286.8 626.71,286.93 624.67,287.08 622.65,287.24 
		620.64,287.41 618.6,287.6 616.59,287.81 614.56,288.05 612.54,288.29 610.52,288.56 608.49,288.88 606.47,289.2 604.44,289.56 
		602.42,289.98 600.4,290.41 598.37,290.89 596.35,291.41 594.32,292 592.3,292.62 590.28,293.31 588.25,294.07 586.23,294.88 
		584.2,295.77 582.18,296.74 580.17,297.81 578.13,298.95 576.12,300.21 574.08,301.55 572.07,303.04 570.05,304.61 568.02,306.31 
		566,308.16 563.98,310.12 561.95,312.23 559.93,314.45 557.9,316.82 555.88,319.28 553.86,321.87 551.83,324.53 549.81,327.24 
		547.78,329.93 545.76,332.55 543.75,335.02 541.71,337.21 539.69,338.98 537.66,340.15 535.65,340.52 533.63,339.81 531.6,337.95 
		529.58,335.15 527.55,331.74 525.53,327.87 523.51,323.75 521.48,319.49 519.46,315.18 517.43,310.85 515.41,306.52 513.39,302.16 
		511.36,297.71 509.34,293.08 507.31,288.2 505.29,283.03 503.27,277.66 501.24,272.23 499.23,266.81 497.21,261.47 495.18,256.22 
		493.16,251.1 491.12,246.11 489.11,241.23 487.09,236.42 485.06,231.63 483.04,226.76 481.01,221.81 478.99,216.74 476.97,211.6 
		474.94,206.44 472.92,201.32 470.89,196.23 468.87,191.21 466.85,186.26 464.82,181.4 462.8,176.59 460.77,171.82 458.75,167.1 
		456.74,162.37 454.7,157.65 452.69,152.94 450.65,148.21 448.64,143.52 446.62,138.86 444.59,134.27 442.57,129.75 440.54,125.36 
		438.52,121.08 436.5,116.96 434.47,113.01 432.45,109.31 430.43,105.93 428.4,102.93 426.38,100.26 424.35,97.88 422.33,95.76 
		420.32,93.89 418.28,92.29 416.27,90.98 414.23,89.99 412.22,89.39 410.2,89.22 408.17,89.6 406.15,90.62 404.12,92.44 
		402.1,95.19 400.08,98.69 398.05,102.79 396.03,107.4 394,112.4 391.98,117.73 389.96,123.3 387.93,129.08 385.91,135 
		383.88,141.02 381.86,147.09 379.84,153.18 377.81,159.25 375.79,165.32 373.76,171.39 371.75,177.46 369.73,183.59 367.7,189.76 
		365.68,196.01 363.66,202.32 361.63,208.7 359.61,215.14 357.58,221.59 355.56,228 353.54,234.33 351.51,240.54 349.49,246.63 
		347.46,252.67 345.44,258.74 343.42,264.88 341.39,271.16 339.37,277.56 337.34,284.11 335.32,290.77 333.31,297.5 331.27,304.21 
		329.26,310.8 327.22,317.15 325.21,323.1 323.19,328.74 321.16,334.19 319.14,339.6 317.11,345.05 315.09,350.64 313.07,356.37 
		311.04,362.23 309.02,368.19 307,374.17 304.97,380.02 302.95,385.59 302.95,385.59 300.26,395.31 300.26,395.31 300.26,395.31 
		298.24,399.85 296.21,404.26 294.19,408.51 292.16,412.56 290.14,416.37 288.12,419.96 286.09,423.27 284.07,426.32 282.04,429.1 
		280.02,431.6 278,433.83 275.97,435.76 273.95,437.38 271.92,438.71 269.9,439.81 267.89,440.69 265.85,441.36 263.84,441.86 
		261.8,442.21 259.79,442.42 257.77,442.52 255.74,442.55 253.72,442.59 251.69,442.64 249.67,442.74 247.65,442.92 245.62,443.16 
		243.6,443.47 241.58,443.8 239.55,444.14 237.53,444.5 235.5,444.88 233.48,445.3 231.47,445.75 229.43,446.26 227.41,446.88 
		225.38,447.66 223.36,448.57 221.35,449.66 219.31,450.9 217.3,452.26 215.27,453.71 213.25,455.23 211.23,456.79 209.2,458.39 
		207.18,460.01 205.15,461.67 203.13,463.36 201.11,465.1 199.08,466.91 197.06,468.74 195.03,470.6 193.01,472.45 190.99,474.22 
		188.96,475.86 186.94,477.31 184.91,478.5 182.89,479.36 180.88,479.81 178.84,479.78 176.83,479.17 174.81,477.88 172.78,475.78 
		171.88,474.42 171.42,473.9 171.12,473.29 170.76,472.74 168.73,468.88 169.03,468.71 167.37,464.04 165.36,457.12 163.34,449.38 
		161.31,441.1 159.29,432.54 157.26,423.88 155.24,415.29 153.22,406.84 151.19,398.65 149.17,390.76 147.14,383.21 145.12,376.05 
		143.1,369.25 141.07,362.86 139.05,356.85 137.02,351.23 135,345.99 132.98,341.09 130.95,336.55 128.93,332.34 126.9,328.44 
		124.89,324.84 122.87,321.49 120.84,318.42 118.82,315.59 116.78,313.01 114.77,310.61 112.75,308.42 110.72,306.4 108.7,304.55 
		106.68,302.86 104.65,301.31 102.63,299.9 100.6,298.6 98.58,297.41 96.56,296.34 94.53,295.34 92.51,294.45 90.48,293.64 
		88.46,292.89 86.45,292.2 84.41,291.58 82.4,291.03 80.36,290.51 78.35,290.05 76.33,289.62 74.3,289.24 72.28,288.89 
		70.25,288.56 68.23,288.29 66.21,288.03 64.18,287.79 62.16,287.56 60.13,287.37 58.11,287.2 56.09,287.05 54.06,286.89 
		52.04,286.77 50.03,286.65 50.03,444.34 52.04,444.46 54.06,444.58 56.09,444.73 58.11,444.89 60.13,445.06 62.16,445.25 
		64.18,445.48 66.21,445.7 68.23,445.96 70.25,446.25 72.28,446.56 74.3,446.91 76.33,447.29 78.35,447.7 80.36,448.17 82.4,448.67 
		84.41,449.22 86.45,449.82 88.46,450.5 90.48,451.22 92.51,452.01 94.53,452.88 96.56,453.84 98.58,454.88 100.6,456.02 
		102.63,457.24 104.65,458.6 106.68,460.07 108.7,461.66 110.72,463.38 112.75,465.26 114.77,467.3 116.78,469.49 118.82,471.87 
		120.84,474.42 122.87,477.18 124.89,480.13 126.9,483.3 128.93,486.7 130.95,490.32 132.98,494.17 135,498.26 137.02,502.59 
		139.05,507.14 141.07,511.94 143.1,516.96 145.12,522.18 147.14,527.58 149.17,533.17 151.19,538.88 153.22,544.68 155.24,550.52 
		157.26,556.34 159.29,562.08 161.31,567.67 163.34,573 165.36,577.96 167.37,582.45 169.41,586.31 171.42,589.35 173.46,591.45 
		175.47,592.75 177.49,593.35 179.52,593.39 181.54,592.94 183.56,592.08 185.59,590.88 187.61,589.44 189.64,587.8 191.66,586.02 
		193.68,584.17 195.71,582.31 197.73,580.48 199.76,578.67 201.78,576.93 203.8,575.24 205.83,573.58 207.84,571.96 209.88,570.36 
		211.89,568.81 213.91,567.29 215.94,565.84 217.96,564.48 219.99,563.23 222.01,562.15 224.03,561.23 226.06,560.46 228.08,559.84 
		230.11,559.32 232.13,558.87 234.15,558.46 236.18,558.08 238.2,557.72 240.23,557.37 242.25,557.04 244.26,556.73 246.3,556.49 
		248.31,556.32 250.33,556.22 252.37,556.16 254.38,556.13 256.42,556.09 258.43,555.99 260.45,555.78 262.48,555.44 264.5,554.94 
		266.53,554.27 268.55,553.39 270.57,552.28 272.6,550.95 274.62,549.33 276.65,547.4 278.67,545.18 280.69,542.67 282.72,539.9 
		284.74,536.84 286.77,533.53 288.79,529.95 290.8,526.13 292.84,522.08 294.85,517.84 296.89,513.42 298.9,508.88 300.92,504.26 
		302.95,499.55 304.97,494.74 307,489.77 309.02,484.63 311.04,479.29 313.07,473.7 315.09,467.88 317.11,461.88 319.14,455.7 
		321.16,449.41 323.19,443.1 325.21,436.84 327.22,430.76 329.26,424.88 331.27,419.1 333.31,413.29 335.32,407.36 337.34,401.23 
		339.37,394.9 341.39,388.35 343.42,381.59 345.44,374.69 347.46,367.72 349.49,360.85 351.51,354.21 353.54,348 355.56,342.21 
		357.58,336.64 359.61,331.08 361.63,325.41 363.66,319.51 365.68,313.35 367.7,306.88 369.73,300.16 371.75,293.24 373.76,286.27 
		375.79,279.41 377.81,272.88 379.84,266.92 381.86,261.45 383.88,256.24 385.91,251.1 387.93,245.89 389.96,240.56 391.98,235.06 
		394,229.45 396.03,223.85 398.05,218.41 400.08,213.41 402.1,209.15 404.12,206.05 406.15,204.44 408.17,204.1 410.2,204.61 
		412.22,205.63 414.23,206.91 416.27,208.27 418.28,209.6 420.32,210.84 422.33,212.07 424.35,213.33 426.38,214.83 428.4,216.79 
		430.43,219.52 432.45,223.24 434.47,227.68 436.5,232.51 438.52,237.46 440.54,242.37 442.57,247.08 444.59,251.53 446.62,255.72 
		448.64,259.67 450.65,263.5 452.69,267.35 454.7,271.42 456.74,275.97 458.75,281.13 460.77,286.65 462.8,292.31 464.82,297.91 
		466.85,303.36 468.87,308.54 470.89,313.44 472.92,318.06 474.94,322.46 476.97,326.72 478.99,331.01 481.01,335.52 483.04,340.41 
		485.06,345.78 487.09,351.42 489.11,357.13 491.12,362.77 493.16,368.27 495.18,373.57 497.21,378.62 499.23,383.45 501.24,388.09 
		503.27,392.61 505.29,397.16 507.31,401.84 509.34,406.81 511.36,412.01 513.39,417.33 515.41,422.57 517.43,427.66 519.46,432.47 
		521.48,436.92 523.51,441.01 525.53,444.67 527.55,447.89 529.58,450.72 531.6,453.17 533.63,455.26 535.65,457.05 537.66,458.57 
		539.69,459.83 541.71,460.83 543.75,461.59 545.76,462.09 547.78,462.38 549.81,462.47 551.83,462.36 553.86,462.09 555.88,461.69 
		557.9,461.19 559.93,460.59 561.95,459.91 563.98,459.21 566,458.45 568.02,457.67 570.05,456.88 572.07,456.1 574.08,455.33 
		576.12,454.57 578.13,453.82 580.17,453.12 582.18,452.43 584.2,451.77 586.23,451.15 588.25,450.57 590.28,450 592.3,449.48 
		594.32,448.98 596.35,448.53 598.37,448.1 600.4,447.7 602.42,447.32 604.44,446.98 606.47,446.67 608.49,446.37 610.52,446.1 
		612.54,445.86 614.56,445.61 616.59,445.41 618.6,445.22 620.64,445.05 622.65,444.87 624.67,444.73 626.71,444.6 628.72,444.46 
		630.74,444.36 632.77,444.25 634.79,444.15 636.82,444.06 638.84,443.99 640.86,443.92 642.89,443.86 644.91,443.8 646.94,443.73 
		648.96,443.7 650.98,443.65 653.01,443.61 655.03,443.58 655.03,285.87 	"/>
</g>
<g id="Layer_6">
	<path class="st2" d="M50.03,365.89c0,0,40.47-0.94,66.07,30.53s45.43,121.12,45.43,121.12s4.12,20.73,12.38,17.71
		c8.27-3.02,32.68-24.98,51.62-32.98c18.94-8,37.18,0.74,45.43-8.3c8.25-9.04,16.73-14.01,30.97-51.4
		c24.15-63.39,90.48-285.83,103.23-293.33c12.76-7.51,20.65,6.35,20.65,6.35l105.31,234.22c0,0,4.12,10.63,10.32,9.56
		c6.21-1.07,18.59-8.88,18.59-8.88s10.31-11.59,28.9-16.71s66.08-8.92,66.08-8.92"/>
</g>
<g id="Layer_7">
	<polygon class="st2" points="49.42,198.02 49.42,548.02 352.53,723.02 655.64,548.02 655.64,198.02 352.53,23.02 	"/>
</g>
</svg>
