<?xml version="1.0" encoding="utf-8"?>
<!-- Generator: Adobe Illustrator 26.2.1, SVG Export Plug-In . SVG Version: 6.00 Build 0)  -->
<svg version="1.1" xmlns="http://www.w3.org/2000/svg" xmlns:xlink="http://www.w3.org/1999/xlink" x="0px" y="0px"
	 viewBox="0 0 167.82 192.89" style="enable-background:new 0 0 167.82 192.89;" xml:space="preserve">
<style type="text/css">
	.st0{fill:#FFFFFF;stroke:#000000;stroke-miterlimit:10;}
	.st1{opacity:0.8;fill:#36C6F4;}
	.st2{fill:#6D6E71;stroke:#000000;stroke-miterlimit:10;}
	.st3{stroke:#000000;stroke-width:2;stroke-miterlimit:10;}
	.st4{fill:#F9F9FA;stroke:#000000;stroke-width:0.25;stroke-miterlimit:10;}
</style>
<g id="Layer_1">
	<polygon class="st0" points="83.51,11.24 8.97,54.81 9.43,141.15 84.43,183.91 158.97,140.34 158.51,54.01 	"/>
</g>
<g id="smoke">
	<path class="st1" d="M79.66,55.96c1.91-3.07,0.97-7.11-2.1-9.02c-0.65-0.4-1.34-0.67-2.04-0.83c-0.28-1.59-1.2-3.06-2.68-3.98
		c-2-1.25-4.46-1.14-6.32,0.06c-1.18-0.38-2.39-0.57-3.59-0.57c-0.83-1.26-1.93-2.37-3.3-3.22c-5.02-3.13-11.62-1.59-14.75,3.43
		c-2.92,4.69-1.77,10.77,2.5,14.1c-1.33,0.41-2.53,1.29-3.33,2.56c-1.57,2.52-1.04,5.76,1.1,7.67c-0.22,0.25-0.43,0.52-0.61,0.82
		c-1.47,2.35-1.06,5.26,0.91,6.48c1.97,1.23,4.76,0.31,6.22-2.04c0.94-1.5,1.1-3.22,0.59-4.6c0.59-0.35,1.12-0.81,1.57-1.36
		c0.62,0.77,1.37,1.46,2.26,2.01c4.2,2.61,9.72,1.33,12.33-2.87c0.21-0.34,0.4-0.69,0.56-1.05c1.55-0.93,2.91-2.23,3.93-3.87
		c0.14-0.23,0.27-0.46,0.39-0.69C75.76,59.29,78.27,58.2,79.66,55.96z"/>
</g>
<g id="Layer_3">
	<path class="st2" d="M38.97,118.24v27.32h90v-40.09c0-1.46-1.95-2.4-3.57-1.73l-28.41,11.77c-1.61,0.67-3.52-0.26-3.52-1.71v-8.62
		c0-1.33-1.77-2.19-3.25-1.57L60.96,115.8c-1.34,0.56-2.96-0.16-3.08-1.36l-3.79-38.51c-0.1-1.03-1.18-1.83-2.48-1.83h-6.02
		c-1.35,0-2.48,0.83-2.59,1.91l-3.91,39.71C39.01,116.55,38.97,117.4,38.97,118.24z"/>
	<rect x="41.78" y="71.83" class="st3" width="12.83" height="2.05"/>
</g>
<g id="Layer_2">
</g>
<g id="Layer_4">
</g>
<g id="Layer_6">
	<rect x="59.33" y="124.54" class="st4" width="2.57" height="2.57"/>
	<rect x="63.89" y="124.54" class="st4" width="2.57" height="2.57"/>
	<rect x="68.45" y="124.54" class="st4" width="2.57" height="2.57"/>
	<rect x="73.02" y="124.54" class="st4" width="2.57" height="2.57"/>
	<rect x="77.58" y="124.54" class="st4" width="2.57" height="2.57"/>
	<rect x="91.26" y="124.54" class="st4" width="2.57" height="2.57"/>
	<rect x="100.38" y="124.54" class="st4" width="2.57" height="2.57"/>
	<rect x="82.14" y="124.54" class="st4" width="2.57" height="2.57"/>
	<rect x="86.7" y="124.54" class="st4" width="2.57" height="2.57"/>
	<rect x="95.82" y="124.54" class="st4" width="2.57" height="2.57"/>
	<rect x="104.95" y="124.54" class="st4" width="2.57" height="2.57"/>
	<rect x="109.51" y="124.54" class="st4" width="2.57" height="2.57"/>
	<rect x="114.07" y="124.54" class="st4" width="2.57" height="2.57"/>
	<rect x="118.63" y="124.54" class="st4" width="2.57" height="2.57"/>
	<rect x="59.33" y="130.25" class="st4" width="2.57" height="2.57"/>
	<rect x="63.89" y="130.25" class="st4" width="2.57" height="2.57"/>
	<rect x="68.45" y="130.25" class="st4" width="2.57" height="2.57"/>
	<rect x="73.02" y="130.25" class="st4" width="2.57" height="2.57"/>
	<rect x="77.58" y="130.25" class="st4" width="2.57" height="2.57"/>
	<rect x="91.26" y="130.25" class="st4" width="2.57" height="2.57"/>
	<rect x="100.38" y="130.25" class="st4" width="2.57" height="2.57"/>
	<rect x="82.14" y="130.25" class="st4" width="2.57" height="2.57"/>
	<rect x="86.7" y="130.25" class="st4" width="2.57" height="2.57"/>
	<rect x="95.82" y="130.25" class="st4" width="2.57" height="2.57"/>
	<rect x="104.95" y="130.25" class="st4" width="2.57" height="2.57"/>
	<rect x="109.51" y="130.25" class="st4" width="2.57" height="2.57"/>
	<rect x="114.07" y="130.25" class="st4" width="2.57" height="2.57"/>
	<rect x="118.63" y="130.25" class="st4" width="2.57" height="2.57"/>
	<rect x="59.33" y="135.38" class="st4" width="2.57" height="2.57"/>
	<rect x="63.89" y="135.38" class="st4" width="2.57" height="2.57"/>
	<rect x="68.45" y="135.38" class="st4" width="2.57" height="2.57"/>
	<rect x="73.02" y="135.38" class="st4" width="2.57" height="2.57"/>
	<rect x="77.58" y="135.38" class="st4" width="2.57" height="2.57"/>
	<rect x="91.26" y="135.38" class="st4" width="2.57" height="2.57"/>
	<rect x="100.38" y="135.38" class="st4" width="2.57" height="2.57"/>
	<rect x="82.14" y="135.38" class="st4" width="2.57" height="2.57"/>
	<rect x="86.7" y="135.38" class="st4" width="2.57" height="2.57"/>
	<rect x="95.82" y="135.38" class="st4" width="2.57" height="2.57"/>
	<rect x="104.95" y="135.38" class="st4" width="2.57" height="2.57"/>
	<rect x="109.51" y="135.38" class="st4" width="2.57" height="2.57"/>
	<rect x="114.07" y="135.38" class="st4" width="2.57" height="2.57"/>
	<rect x="118.63" y="135.38" class="st4" width="2.57" height="2.57"/>
</g>
</svg>
